<?xml version="1.0" encoding="UTF-8" standalone="no"?>
<!-- Created with Inkscape (http://www.inkscape.org/) -->

<svg
   width="1641.4139"
   height="243.07581"
   viewBox="0 0 547.13798 81.02527"
   version="1.1"
   id="svg1"
   inkscape:version="1.3 (0e150ed6c4, 2023-07-21)"
   sodipodi:docname="msl-web-header.svg"
   xml:space="preserve"
   xmlns:inkscape="http://www.inkscape.org/namespaces/inkscape"
   xmlns:sodipodi="http://sodipodi.sourceforge.net/DTD/sodipodi-0.dtd"
   xmlns:xlink="http://www.w3.org/1999/xlink"
   xmlns="http://www.w3.org/2000/svg"
   xmlns:svg="http://www.w3.org/2000/svg"><sodipodi:namedview
     id="namedview1"
     pagecolor="#505050"
     bordercolor="#eeeeee"
     borderopacity="1"
     inkscape:showpageshadow="0"
     inkscape:pageopacity="0"
     inkscape:pagecheckerboard="0"
     inkscape:deskcolor="#505050"
     inkscape:document-units="mm"
     inkscape:zoom="0.39800519"
     inkscape:cx="1326.6159"
     inkscape:cy="482.40577"
     inkscape:window-width="1841"
     inkscape:window-height="1171"
     inkscape:window-x="70"
     inkscape:window-y="-9"
     inkscape:window-maximized="1"
     inkscape:current-layer="layer1"
     showguides="true"
     inkscape:lockguides="false"><sodipodi:guide
       position="-184.33021,531.21971"
       orientation="0,-1"
       id="guide6"
       inkscape:locked="false" /><sodipodi:guide
       position="-255.41074,1078.2948"
       orientation="1,0"
       id="guide7"
       inkscape:locked="false" /><sodipodi:guide
       position="525.69067,-13.986296"
       orientation="1,0"
       id="guide8"
       inkscape:locked="false" /><sodipodi:guide
       position="-366.44662,1311.9483"
       orientation="1,0"
       id="guide9"
       inkscape:locked="false" /><sodipodi:guide
       position="273.20102,-25.258156"
       orientation="1,0"
       id="guide10"
       inkscape:locked="false" /><sodipodi:guide
       position="20.71138,16.447724"
       orientation="1,0"
       id="guide11"
       inkscape:locked="false" /></sodipodi:namedview><defs
     id="defs1"><linearGradient
       id="linearGradient4"
       inkscape:collect="always"><stop
         style="stop-color:#0027ce;stop-opacity:1;"
         offset="0"
         id="stop4" /><stop
         style="stop-color:#cc0000;stop-opacity:1;"
         offset="1"
         id="stop5" /></linearGradient><linearGradient
       id="linearGradient19"
       inkscape:collect="always"><stop
         style="stop-color:#0021ca;stop-opacity:1;"
         offset="0"
         id="stop19" /><stop
         style="stop-color:#cd0000;stop-opacity:1;"
         offset="1"
         id="stop20" /></linearGradient><linearGradient
       id="linearGradient3-2"
       inkscape:collect="always"
       gradientTransform="scale(1.1813897,0.84646074)"
       x1="11.568155"
       y1="174.92273"
       x2="47.990738"
       y2="174.92273"
       gradientUnits="userSpaceOnUse"><stop
         style="stop-color:#0021ca;stop-opacity:1;"
         offset="0"
         id="stop1" /><stop
         style="stop-color:#cd0000;stop-opacity:1;"
         offset="1"
         id="stop2" /></linearGradient><linearGradient
       inkscape:collect="always"
       xlink:href="#linearGradient4"
       id="linearGradient3"
       gradientUnits="userSpaceOnUse"
       gradientTransform="translate(171.61924,483.81368)"
       x1="172.67854"
       y1="3.4195304"
       x2="549.81354"
       y2="5.9850202" /><linearGradient
       inkscape:collect="always"
       xlink:href="#linearGradient3-2"
       id="linearGradient5"
       gradientUnits="userSpaceOnUse"
       gradientTransform="scale(1.1813897,0.84646074)"
       x1="11.568155"
       y1="174.92273"
       x2="47.990738"
       y2="174.92273" /><linearGradient
       inkscape:collect="always"
       xlink:href="#linearGradient19"
       id="linearGradient6"
       gradientUnits="userSpaceOnUse"
       x1="85.37101"
       y1="169.3466"
       x2="126.92956"
       y2="169.3466" /></defs><g
     inkscape:label="Layer 1"
     inkscape:groupmode="layer"
     id="layer1"
     transform="translate(-323.0774,-455.29478)"><ellipse
       style="fill:#008000;fill-opacity:0;stroke:#48da0e;stroke-width:0.106955;stroke-linecap:round;stroke-linejoin:bevel;stroke-dasharray:none;stroke-dashoffset:89.9528;stroke-opacity:0;paint-order:stroke fill markers"
       id="path5"
       cx="-117.02586"
       cy="-49.027893"
       transform="matrix(-0.99017092,-0.13986259,0.14260027,-0.98978036,0,0)"
       rx="35.641136"
       ry="35.255211"
       inkscape:label="text mslpu circle" /><text
       xml:space="preserve"
       style="font-style:normal;font-variant:normal;font-weight:300;font-stretch:normal;font-size:4.23333px;font-family:'LEMON MILK';-inkscape-font-specification:'LEMON MILK Light';letter-spacing:0px;fill:#ffffff;fill-opacity:1;stroke:none;stroke-width:0.095;stroke-linecap:round;stroke-linejoin:bevel;stroke-dasharray:none;stroke-dashoffset:89.9528;stroke-opacity:1;paint-order:stroke fill markers"
       id="text6-5"
       transform="translate(0.066146,-0.198438)"><textPath
         xlink:href="#path5"
         id="textPath6"><tspan
           id="tspan6-8"
           style="font-size:4.23333px;fill:#ffffff;fill-opacity:1;stroke-width:0.095">moravskoslezská liga v požárním útoku</tspan></textPath></text><ellipse
       style="fill:#008000;fill-opacity:0;stroke:#48da0e;stroke-width:0.106955;stroke-linecap:round;stroke-linejoin:bevel;stroke-dasharray:none;stroke-dashoffset:89.9528;stroke-opacity:0;paint-order:stroke fill markers"
       id="path5-8"
       cx="-90.725075"
       cy="-173.33626"
       transform="matrix(-0.99017092,-0.13986259,0.14260027,-0.98978036,0,0)"
       rx="35.641136"
       ry="35.255211"
       inkscape:label="text mslpu circle" /><text
       xml:space="preserve"
       style="font-style:normal;font-variant:normal;font-weight:300;font-stretch:normal;font-size:4.23333px;font-family:'LEMON MILK';-inkscape-font-specification:'LEMON MILK Light';letter-spacing:0px;fill:#ffffff;fill-opacity:1;stroke:none;stroke-width:0.095;stroke-linecap:round;stroke-linejoin:bevel;stroke-dasharray:none;stroke-dashoffset:89.9528;stroke-opacity:1;paint-order:stroke fill markers"
       id="text6-5-9"
       transform="translate(0.066146,-0.19844)"><textPath
         xlink:href="#path5-8"
         id="textPath6-1"><tspan
           id="tspan6-8-1"
           style="font-size:4.23333px;fill:#ffffff;fill-opacity:1;stroke-width:0.095">moravskoslezská liga v požárním útoku</tspan></textPath></text><ellipse
       style="fill:#008000;fill-opacity:0;stroke:#48da0e;stroke-width:0.106955;stroke-linecap:round;stroke-linejoin:bevel;stroke-dasharray:none;stroke-dashoffset:89.9528;stroke-opacity:0;paint-order:stroke fill markers"
       id="path5-8-7"
       cx="-186.10254"
       cy="-159.77431"
       transform="matrix(-0.99017092,-0.13986259,0.14260027,-0.98978036,0,0)"
       rx="35.641136"
       ry="35.255211"
       inkscape:label="text mslpu circle" /><text
       xml:space="preserve"
       style="font-style:normal;font-variant:normal;font-weight:300;font-stretch:normal;font-size:4.23333px;font-family:'LEMON MILK';-inkscape-font-specification:'LEMON MILK Light';letter-spacing:0px;fill:#000000;fill-opacity:1;stroke:none;stroke-width:0.095;stroke-linecap:round;stroke-linejoin:bevel;stroke-dasharray:none;stroke-dashoffset:89.9528;stroke-opacity:1;paint-order:stroke fill markers"
       id="text6-5-9-5"
       transform="translate(0.066146,-0.19844)"><textPath
         xlink:href="#path5-8-7"
         id="textPath6-1-3"><tspan
           id="tspan6-8-1-6"
           style="font-size:4.23333px;fill:#000000;fill-opacity:1;stroke-width:0.095">moravskoslezská liga v požárním útoku</tspan></textPath></text><ellipse
       style="fill:#008000;fill-opacity:0;stroke:#48da0e;stroke-width:0.106955;stroke-linecap:round;stroke-linejoin:bevel;stroke-dasharray:none;stroke-dashoffset:89.9528;stroke-opacity:0;paint-order:stroke fill markers"
       id="path5-4"
       cx="-103.36318"
       cy="-275.52097"
       transform="matrix(-0.99017092,-0.13986259,0.14260027,-0.98978036,0,0)"
       rx="35.641136"
       ry="35.255211"
       inkscape:label="text mslpu circle" /><text
       xml:space="preserve"
       style="font-style:normal;font-variant:normal;font-weight:300;font-stretch:normal;font-size:4.23333px;font-family:'LEMON MILK';-inkscape-font-specification:'LEMON MILK Light';letter-spacing:0px;fill:#ffffff;fill-opacity:1;stroke:none;stroke-width:0.095;stroke-linecap:round;stroke-linejoin:bevel;stroke-dasharray:none;stroke-dashoffset:89.9528;stroke-opacity:1;paint-order:stroke fill markers"
       id="text6-5-1"
       transform="translate(0.066146,-0.19844)"><textPath
         xlink:href="#path5-4"
         id="textPath6-3"><tspan
           id="tspan6-8-8"
           style="font-size:4.23333px;fill:#ffffff;fill-opacity:1;stroke-width:0.095">moravskoslezská liga v požárním útoku</tspan></textPath></text><rect
       style="fill:none;stroke:none;stroke-width:0.795806;stroke-linecap:round;stroke-linejoin:bevel;paint-order:stroke fill markers"
       id="rect1-3-1"
       width="547.138"
       height="81.025253"
       x="323.07739"
       y="455.2948"
       inkscape:export-filename="msl-web-header-narrow.svg"
       inkscape:export-xdpi="586.85461"
       inkscape:export-ydpi="586.85461" /><path
       d="m 828.27158,463.61185 -3.8275,7.49935 h 5.9857 l 5.2962,-7.49935 z m -421.15429,9.50196 c -11.14858,0 -19.69401,8.16656 -19.69401,18.93685 0,10.68127 8.52328,18.80403 19.67187,18.80403 11.17084,0 19.7155,-8.12276 19.7155,-18.80403 0,-10.77029 -8.54477,-18.93685 -19.69336,-18.93685 z m 201.92059,37.74088 c -437.41864,-27.04101 -437.41864,-27.04101 0,0 z m -65.17775,-37.31771 c -6.80933,0 -12.70638,4.42823 -12.70638,10.63672 0,5.4074 3.89404,8.38877 8.43359,10.34701 3.51592,1.55768 7.1875,3.18232 7.1875,5.02929 0,1.46868 -1.98021,2.20313 -4.00521,2.20313 -3.00411,0 -5.78576,-1.3354 -7.27669,-3.53841 l -5.76367,5.65234 c 1.80247,3.96098 7.16553,6.56445 13.0625,6.56445 7.1876,0 13.55208,-4.25046 13.55208,-11.08203 0,-5.29613 -3.71655,-8.72259 -9.32422,-11.08138 -3.87196,-1.62444 -6.40885,-2.15864 -6.40885,-3.80534 0,-1.22389 1.40244,-2.22526 3.36067,-2.22526 1.71346,0 4.47224,0.82337 5.54037,2.71485 l 5.49674,-5.29623 c -1.40191,-3.53817 -5.67428,-6.11914 -11.14843,-6.11914 z m 101.82815,0 c -6.8093,0 -12.7064,4.42823 -12.7064,10.63672 0,5.4074 3.894,8.38877 8.4336,10.34701 3.5159,1.55768 7.1875,3.18232 7.1875,5.02929 0,1.46868 -1.9802,2.20313 -4.0052,2.20313 -3.0041,0 -5.7858,-1.3354 -7.2767,-3.53841 l -5.7637,5.65234 c 1.8025,3.96098 7.1656,6.56445 13.0625,6.56445 7.1876,0 13.5521,-4.25046 13.5521,-11.08203 0,-5.29613 -3.7165,-8.72259 -9.3242,-11.08138 -3.872,-1.62444 -6.4082,-2.15864 -6.4082,-3.80534 0,-1.22389 1.4018,-2.22526 3.36,-2.22526 1.7135,0 4.4729,0.82337 5.541,2.71485 l 5.4961,-5.29623 c -1.4019,-3.53817 -5.6743,-6.11914 -11.1484,-6.11914 z m 115.8248,0 c -6.8093,0 -12.7057,4.42823 -12.7057,10.63672 0,5.4074 3.8941,8.38877 8.4336,10.34701 3.5159,1.55768 7.1875,3.18232 7.1875,5.02929 0,1.46868 -1.9802,2.20313 -4.0052,2.20313 -3.0041,0 -5.7858,-1.3354 -7.2767,-3.53841 l -5.7637,5.65234 c 1.8025,3.96098 7.1656,6.56445 13.0625,6.56445 7.1876,0 13.5515,-4.25046 13.5515,-11.08203 0,-5.29613 -3.7159,-8.72259 -9.3236,-11.08138 -3.872,-1.62444 -6.4089,-2.15864 -6.4089,-3.80534 0,-1.22389 1.4018,-2.22526 3.3601,-2.22526 1.7134,0 4.4729,0.82337 5.541,2.71485 l 5.4967,-5.29623 c -1.4019,-3.53817 -5.6749,-6.11914 -11.1491,-6.11914 z m -282.2747,0.0885 -16.66732,36.31641 h 10.41407 L 474.81,505.7583 h 13.39583 l 1.80273,4.18359 h 10.4362 l -16.68945,-36.31641 z m 346.6966,0 -16.6673,36.31641 h 10.4141 l 1.8248,-4.18359 h 13.3959 l 1.8027,4.18359 h 10.4369 l -16.6902,-36.31641 z m -481.63735,0.11133 v 36.20508 h 9.52408 v -14.2194 l 9.68034,13.61849 h 0.0664 l 9.65755,-13.61845 v 14.2194 h 9.52409 v -36.20508 h -3.82682 l -15.39908,21.09571 -15.39909,-21.09571 z m 87.18619,0.33399 0.0443,35.87109 h 9.52474 v -15.57682 l 9.5905,15.57682 h 11.14844 l -9.61266,-14.39713 c 3.51592,-1.6022 6.20833,-5.34102 6.20833,-9.81381 0,-6.43102 -5.54123,-11.66015 -13.28516,-11.66015 z m 60.9948,0 16.46679,36.24934 h 4.31706 l 16.53385,-36.24934 h -10.43684 l -8.30013,19.42643 -8.278,-19.42643 z m 68.22656,0 v 35.87109 h 9.50195 v -13.64062 l 9.07878,13.64062 h 11.54947 L 578.48513,491.56103 589.47798,474.0708 H 578.5294 l -8.32227,13.3737 v -13.3737 z m 101.8281,0 v 35.87109 h 23.2539 v -8.94531 h -13.7298 V 474.0708 Z m 27.3041,0 v 35.87109 h 23.2545 v -8.92318 h -13.8418 v -5.14058 h 11.3939 v -7.94401 h -11.3939 v -5.00651 h 13.8418 v -8.85677 z m 27.304,0 v 8.90104 h 12.1276 l -12.1276,26.97005 h 27.1263 v -8.94531 h -12.1055 l 12.1055,-26.92578 z m 61.2175,0 v 35.87109 h 9.5019 v -13.64062 l 9.0788,13.64062 h 11.5495 l -12.3503,-18.38086 10.9928,-17.49023 h -10.9485 l -8.3223,13.3737 v -13.3737 z m -371.24159,8.0996 c 5.69668,0 10.05794,4.27289 10.05794,9.81381 0,5.51866 -4.36126,9.76888 -10.05794,9.76888 -5.69669,0 -10.0586,-4.25022 -10.0586,-9.76888 0,-5.54092 4.36191,-9.81381 10.0586,-9.81381 z m 33.89062,0.46745 h 3.89453 c 2.00275,0 3.87175,1.37955 3.87175,3.60482 0,2.20301 -1.84675,3.62772 -3.87175,3.60547 l -3.89453,-0.0228 z m 40.5,7.65495 3.67188,8.50065 h -7.36589 z m 346.69667,0 3.6718,8.50065 h -7.3659 z"
       style="font-weight:bold;font-size:45.5735px;font-family:'LEMON MILK';-inkscape-font-specification:'LEMON MILK Bold';letter-spacing:0px;fill:url(#linearGradient3);stroke-width:2.42221;stroke-linecap:round;stroke-linejoin:bevel;paint-order:stroke fill markers"
       id="path11-7-4"
       sodipodi:nodetypes="cccccssssssssscssccsscssccssscssccsscssccssscssccsscssccscccccccccccccccccccccccccccccccccccccccssccccccccccccccccccccccccccccccccccccccccccccccccccccccccccccccssssscssccccccccccc" /><circle
       style="fill:#05062d;fill-opacity:1;stroke:#ffffff;stroke-width:1.09647;stroke-linecap:round;stroke-linejoin:bevel;stroke-dasharray:none;stroke-opacity:1;paint-order:stroke fill markers"
       id="path2-4-3"
       cx="609.73041"
       cy="492.01328"
       r="18.814323"
       inkscape:export-filename=".\new-msl-logo-simple"
       inkscape:export-xdpi="96"
       inkscape:export-ydpi="96" /><text
       xml:space="preserve"
       style="font-style:normal;font-variant:normal;font-weight:normal;font-stretch:normal;font-size:14.007px;font-family:'LEMON MILK';-inkscape-font-specification:'LEMON MILK';letter-spacing:0px;fill:#000000;fill-opacity:1;stroke:#ffffff;stroke-width:1.48892;stroke-linecap:round;stroke-linejoin:bevel;stroke-dasharray:none;paint-order:stroke fill markers"
       x="500.24734"
       y="526.69"
       id="text5-9-8"><tspan
         sodipodi:role="line"
         id="tspan5-7-5"
         style="font-style:italic;font-variant:normal;font-weight:bold;font-stretch:normal;font-size:14.007px;font-family:'LEMON MILK';-inkscape-font-specification:'LEMON MILK Bold Italic';fill:#ffffff;fill-opacity:1;stroke:#000000;stroke-width:1.48892;stroke-dasharray:none;stroke-opacity:1"
         x="500.24734"
         y="526.69">LIGA V POŽÁRNÍM ÚTOKU</tspan></text><g
       id="path6-5-2-5-9"
       style="fill:url(#linearGradient6);stroke:#ffffff;stroke-width:1.5;stroke-dasharray:none;stroke-opacity:1"
       transform="matrix(0.73098236,0,0,0.73098236,583.91708,373.18884)"><path
         id="path10-5-4-3"
         style="color:#000000;fill:url(#linearGradient5);stroke:#ffffff;stroke-width:1.5;stroke-linecap:round;stroke-linejoin:bevel;stroke-dasharray:none;stroke-opacity:1;paint-order:stroke fill markers"
         d="m 41.279571,148.81753 c -0.0322,0.005 -0.0592,0.0155 -0.0832,0.0253 -0.0481,0.0197 -0.0884,0.0451 -0.13074,0.0744 -0.0846,0.0586 -0.17426,0.13672 -0.27905,0.23616 -0.2096,0.19888 -0.47282,0.48157 -0.7736,0.82424 -0.60156,0.68533 -1.35483,1.61146 -2.10375,2.5585 -0.74892,0.94705 -1.49245,1.91496 -2.07015,2.682 -0.28885,0.38354 -0.53613,0.71672 -0.72244,0.97255 -0.1863,0.25587 -0.30464,0.4224 -0.36122,0.51729 -0.0867,0.14528 -0.68727,1.21174 -0.96325,2.43602 -0.13798,0.61214 -0.19512,1.26197 -0.0372,1.85312 0.15791,0.59116 0.55118,1.11985 1.24643,1.41593 1.19338,0.50819 2.58937,0.005 3.81837,-0.68523 1.22899,-0.69056 2.32031,-1.59867 2.8727,-1.99626 0.0512,-0.0369 0.062,-0.0347 0.0899,-0.047 0.002,0.0195 0.004,0.0134 0.002,0.0434 -0.005,0.0846 -0.0271,0.20347 -0.0662,0.34726 -0.15655,0.57515 -0.59416,1.52642 -1.27744,2.58434 l -0.004,0.004 c -2.41441,3.93757 -8.13057,7.22927 -13.248289,14.05702 -0.201452,0.26876 -0.312417,0.51704 -0.333829,0.74776 -0.02141,0.23073 0.06962,0.45771 0.250114,0.57619 0.180487,0.11847 0.409754,0.12714 0.642338,0.0605 0.232582,-0.0666 0.47828,-0.2103 0.72657,-0.43511 4.398426,-3.98231 11.194326,-9.90663 14.189836,-13.42812 0.9034,-1.06205 1.37757,-3.17922 1.39836,-4.9413 0.0104,-0.88106 -0.0932,-1.66838 -0.36949,-2.21072 -0.13812,-0.27118 -0.32747,-0.49087 -0.58756,-0.59221 -0.26008,-0.10133 -0.56521,-0.065 -0.87126,0.092 -1.5611,0.80059 -2.80801,1.94774 -3.76566,2.69131 -0.47883,0.37179 -0.88876,0.63666 -1.18546,0.71675 -0.14835,0.0401 -0.26085,0.0386 -0.35915,0.002 -0.0983,-0.0366 -0.19514,-0.11331 -0.29714,-0.26769 -0.34947,-0.52899 -0.25614,-1.69631 0.54312,-2.82773 2.01369,-2.85072 5.0593,-5.19085 7.30084,-6.9572 0.0675,-0.0532 0.12384,-0.11132 0.16175,-0.19327 0.0379,-0.0819 0.0438,-0.19457 0.008,-0.27957 -0.0713,-0.17 -0.20833,-0.22852 -0.3514,-0.2868 -0.28615,-0.11654 -0.68924,-0.18495 -1.12138,-0.23823 -0.86427,-0.10656 -1.82004,-0.13126 -1.82004,-0.13126 l 0.0465,0.006 c -0.0446,-0.011 -0.082,-0.0114 -0.11421,-0.006 z m 7.09936,3.00714 c -0.53228,-0.0178 -1.18735,0.17297 -1.28781,0.53237 -1.39232,4.981 -3.06419,12.53904 -4.06901,18.17254 -0.15336,0.85976 1.83475,0.92466 2.57794,0.46596 3.2056,-1.97856 6.42172,-3.77484 10.21972,-6.5858 0.49639,-0.36737 -0.54649,-1.87091 -1.05598,-1.52194 -3.33418,2.28366 -8.60459,5.37371 -8.60459,5.37371 0,0 1.85358,-10.31376 2.91984,-15.99767 0.0535,-0.28526 -0.28612,-0.42531 -0.70011,-0.43917 z m -21.566344,0.27774 c -0.757158,-0.005 -1.656599,0.34758 -2.091862,1.11931 -1.270762,2.25309 -3.658926,5.01573 -5.726266,7.20318 -2.067341,2.18744 -3.704167,3.65973 -3.812687,3.80442 -0.03721,0.0465 -0.03979,0.0589 -0.05839,0.092 -0.0396,0.0671 -0.185989,0.43567 -0.369487,0.95704 -0.09175,0.26069 -0.182184,0.53926 -0.24598,0.79272 -0.06379,0.25346 -0.108682,0.47186 -0.08217,0.67231 0.05819,0.43986 0.393988,0.777 0.691431,1.02888 0.297443,0.25189 0.582393,0.41444 0.582393,0.41444 0.07354,0.0391 0.234918,-0.001 0.284737,-0.0568 l 8.521444,-11.04687 c -0.299032,1.03445 -1.041601,3.51999 -1.241785,5.03328 -0.03234,0.24447 0.04509,0.46976 0.19327,0.61133 0.148181,0.14157 0.341865,0.20251 0.533301,0.22273 0.382872,0.0404 0.786186,-0.05 1.035079,-0.30696 0.761751,-0.78637 2.260654,-1.95325 3.558439,-2.91197 1.077917,-0.79629 1.703607,-1.22606 1.992127,-1.42575 l -1.31413,10.65051 -0.002,0.0295 c -0.0367,0.29329 0.0191,1.83968 0.0191,1.83968 0.002,0.0635 0.0227,0.12654 0.0863,0.17157 0,0 0.38786,0.3012 0.79272,0.54312 0.20243,0.12096 0.40365,0.2287 0.5979,0.27957 0.0971,0.0254 0.19678,0.0436 0.31419,0.004 0.11741,-0.0401 0.21851,-0.17834 0.23254,-0.30075 0.75548,-6.58696 1.49146,-10.95171 2.57039,-16.69924 0.075,-0.39954 -0.0473,-0.75478 -0.28525,-0.99374 -0.23799,-0.23896 -0.57214,-0.37226 -0.9276,-0.4222 -0.71092,-0.0999 -1.54807,0.11614 -1.99832,0.72089 -1.12709,1.51384 -3.078014,2.93098 -3.755851,3.41219 0.160813,-0.59441 0.673142,-2.49587 1.148767,-4.13876 0.114959,-0.39693 0.0019,-0.76661 -0.252181,-0.9865 -0.25408,-0.2199 -0.609166,-0.31213 -0.988053,-0.31213 h -0.0021 z"
         sodipodi:nodetypes="cccssssscssscscccccsssscsssscscsscsscssccccssscsccsscssccsssscccssccscccccssccssssccsscc" /></g></g></svg>
